<?xml version="1.0" encoding="UTF-8" standalone="no"?>
<svg
   width="25"
   height="25"
   viewBox="0 0 25 25"
   style="fill:#ffffff"
   aria-hidden="true"
   focusable="false"
   data-testid="core-ui-icon-bike-left"
   version="1.1"
   id="svg1"
   sodipodi:docname="bluebike_classic.svg"
   inkscape:version="1.3.2 (091e20e, 2023-11-25, custom)"
   xmlns:inkscape="http://www.inkscape.org/namespaces/inkscape"
   xmlns:sodipodi="http://sodipodi.sourceforge.net/DTD/sodipodi-0.dtd"
   xmlns="http://www.w3.org/2000/svg"
   xmlns:svg="http://www.w3.org/2000/svg">
  <defs
     id="defs1" />
  <sodipodi:namedview
     id="namedview1"
     pagecolor="#000000"
     bordercolor="#000000"
     borderopacity="0.25"
     inkscape:showpageshadow="2"
     inkscape:pageopacity="0.0"
     inkscape:pagecheckerboard="0"
     inkscape:deskcolor="#d1d1d1"
     inkscape:export-bgcolor="#ffffff00"
     inkscape:zoom="25.65625"
     inkscape:cx="5.320341"
     inkscape:cy="11.829476"
     inkscape:window-width="1920"
     inkscape:window-height="1017"
     inkscape:window-x="1912"
     inkscape:window-y="-8"
     inkscape:window-maximized="1"
     inkscape:current-layer="svg1" />
  <circle
     style="fill:#09457b;fill-opacity:1;stroke:#d31f11;stroke-width:6.004;stroke-dasharray:2.79653, 10.3979;stroke-dashoffset:0;stroke-opacity:0;paint-order:normal"
     id="path4"
     r="11.557489"
     cy="12.62746"
     cx="12.209215"
     inkscape:export-filename="..\Documents\GitHub\BCU\Website\public\bluebike_classic.png"
     inkscape:export-xdpi="96"
     inkscape:export-ydpi="96" />
  <path
     d="m 7.8279997,12.011499 c 0.236,10e-4 0.4720001,0.028 0.7030001,0.08 l 0.615,-1.677 h -0.84 A 0.987,0.987 0 0 1 7.3679997,9.7184996 l -0.3609999,-1.183 h 1.1459999 l 0.2380001,0.779 h 1.154 l 0.7599992,-2.074 a 1.542,1.542 0 0 1 1.441,-1.006 h 1.727 v 1.1 h -1.725 a 0.437,0.437 0 0 0 -0.408,0.285 l -0.473,1.291 3.194,5.0799994 1.309001,-3.571 H 15.076 V 9.3164996 h 2.518 v 1.1019994 h -1.052 l -0.686,1.874 a 3.261,3.261 0 0 1 1.316,-0.279 c 1.836,0 3.328,1.514 3.328,3.376001 0,1.862 -1.493,3.376 -3.328,3.376 -1.703,0 -3.095001,-1.31 -3.288001,-2.986 l -3.494,-5.560001 -0.8399992,2.295 A 3.375,3.375 0 0 1 11.155999,15.3885 c 0,1.861 -1.4929991,3.376 -3.3269992,3.376 -1.836,0 -3.329,-1.515 -3.329,-3.376 0,-1.860001 1.493,-3.377001 3.3279999,-3.377001 z M 17.173,17.6615 c 1.228,0 2.227,-1.02 2.227,-2.274 0,-1.254001 -0.999,-2.274001 -2.227,-2.274001 -1.229,0 -2.227,1.02 -2.227,2.274001 0,1.254 0.999,2.274 2.227,2.274 z m -9.3450003,0 c 1.228,0 2.2270003,-1.02 2.2270003,-2.274 0,-1.254001 -1.0000003,-2.274001 -2.2270003,-2.274001 -1.229,0 -2.228,1.02 -2.228,2.274001 0,1.254 1,2.274 2.228,2.274 z"
     id="path1"
     style="fill:#ffffff" />
</svg>
