<?xml version="1.0" encoding="UTF-8" standalone="no"?>
<!-- Created with Inkscape (http://www.inkscape.org/) -->

<svg
   version="1.1"
   id="svg1"
   width="1351"
   height="364"
   viewBox="0 0 1351 364"
   sodipodi:docname="labs_wordmark.svg"
   inkscape:version="1.3.2 (091e20e, 2023-11-25, custom)"
   inkscape:export-filename="labs_wordmark.svg"
   inkscape:export-xdpi="96"
   inkscape:export-ydpi="96"
   xmlns:inkscape="http://www.inkscape.org/namespaces/inkscape"
   xmlns:sodipodi="http://sodipodi.sourceforge.net/DTD/sodipodi-0.dtd"
   xmlns="http://www.w3.org/2000/svg"
   xmlns:svg="http://www.w3.org/2000/svg">
  <defs
     id="defs1" />
  <sodipodi:namedview
     id="namedview1"
     pagecolor="#ffffff"
     bordercolor="#000000"
     borderopacity="0.25"
     inkscape:showpageshadow="2"
     inkscape:pageopacity="0.0"
     inkscape:pagecheckerboard="0"
     inkscape:deskcolor="#d1d1d1"
     inkscape:zoom="0.823094"
     inkscape:cx="674.89254"
     inkscape:cy="276.39613"
     inkscape:window-width="1920"
     inkscape:window-height="1017"
     inkscape:window-x="1912"
     inkscape:window-y="-8"
     inkscape:window-maximized="1"
     inkscape:current-layer="layer1"
     inkscape:export-bgcolor="#ffffffff" />
  <g
     inkscape:groupmode="layer"
     id="layer1"
     inkscape:label="background">
    <rect
       style="fill:#f8f8f8;stroke:#d31f11;stroke-width:3.199;stroke-dasharray:1.49002, 5.54007;fill-opacity:1"
       id="rect1"
       width="1389.8777"
       height="439.80396"
       x="-15.794065"
       y="-23.083633" />
  </g>
  <g
     inkscape:groupmode="layer"
     inkscape:label="Image"
     id="g1"
     transform="translate(4.2446166e-8,-2.4298541)">
    <path
       style="fill:#0f4b8d;fill-opacity:1"
       d="M -4.2446166e-8,184.42985 V 2.4298541 H 675.5 1351 v 181.9999959 182 H 675.5 -4.2446166e-8 Z M 194,311.88226 c 52.36415,-8.48598 95.05923,-49.16263 106.48663,-101.45241 2.48372,-11.36508 3.0335,-34.32452 1.1214,-46.83071 -4.20372,-27.49456 -16.44866,-51.27055 -36.97771,-71.799596 -24.51081,-24.51081 -51.84221,-36.58091 -86.13032,-38.0369 -36.68241,-1.55765 -69.17122,10.80315 -95.577491,36.36374 -16.08449,15.569376 -27.286964,33.468566 -33.75093,53.926856 -4.612462,14.59834 -5.659649,22.08502 -5.64761,40.37661 0.01127,17.1222 0.684899,21.97638 5.134609,37 9.706623,32.77262 35.43755,63.00945 67.169932,78.93247 8.84852,4.4401 25.30902,9.78676 35.26822,11.45574 11.40483,1.91123 31.32196,1.94104 42.90327,0.0642 z M 157.17627,305.4273 C 135.73675,302.40181 114.36405,293.44037 97.430603,280.37631 88.996505,273.86945 76.416872,260.13821 70.317902,250.78156 33.453609,194.22674 49.060951,118.41511 105.2593,81.056004 134.21969,61.803934 171.0301,55.869234 205,64.975454 c 55.46692,14.86886 93.77963,67.487746 90.61739,124.454396 -1.76268,31.75398 -13.57103,58.20727 -35.99057,80.62682 -17.56976,17.56976 -36.4283,27.98062 -60.62682,33.46904 -9.83325,2.23027 -32.26677,3.25025 -41.82373,1.90159 z M 199,299.55352 C 264.97401,284.50037 305.06521,218.37794 287.9273,152.8857 276.48848,109.17241 239.5779,75.150884 194,66.310224 c -9.88175,-1.91675 -33.82197,-1.64847 -43.79607,0.49077 -24.62235,5.28101 -43.24278,15.38979 -60.792573,33.00349 -17.829115,17.894026 -27.815886,36.291326 -33.020509,60.829296 -2.450174,11.55171 -2.444458,34.31924 0.0115,45.79607 7.24778,33.86933 26.896032,61.74982 55.729702,79.07936 13.50751,8.11826 29.30224,13.6964 45.07636,15.91939 9.65391,1.3605 32.00635,0.3576 41.79159,-1.87508 z m -39.05588,-5.96784 c -6.56559,-5.31649 1.58891,-16.15203 9.12162,-12.12065 1.06384,0.56935 1.93426,1.69435 1.93426,2.5 0,1.10803 -0.48715,0.97767 -2,-0.53518 -4.57181,-4.57181 -10.11378,-0.0786 -8.4097,6.81821 0.79435,3.21493 1.33009,3.72214 4.22502,4.00002 1.82343,0.17503 3.97123,-0.22612 4.7729,-0.89144 1.19287,-0.99 1.34318,-0.91159 0.82768,0.43177 -0.88173,2.29776 -7.54306,2.16881 -10.47178,-0.20273 z m 16.72404,0.005 c 0.26451,-1.01149 0.0588,-4.16149 -0.4571,-7 -0.85495,-4.70372 -0.77298,-5.16083 0.92545,-5.16083 1.61201,0 1.86349,0.81395 1.86349,6.03138 0,6.96557 1.51177,8.35929 6.16842,5.68675 3.18463,-1.82773 3.57707,-1.60648 1.26015,0.71044 -0.94523,0.94524 -3.29885,1.57143 -5.90638,1.57143 -3.71617,0 -4.2663,-0.26251 -3.85403,-1.83906 z m -29.84546,-0.83626 c -1.40071,-0.37022 -1.50743,-0.93061 -0.64717,-3.39837 0.79356,-2.2764 0.65243,-3.89902 -0.61454,-7.06549 -1.78823,-4.46921 -1.55806,-5.45741 1.03901,-4.46082 0.92744,0.35589 1.43359,0.89974 1.12478,1.20855 -0.30881,0.30881 -0.0945,1.90115 0.47634,3.53854 l 1.03781,2.97707 2.34972,-2.20744 c 1.29234,-1.21409 2.11202,-2.59203 1.82151,-3.06208 -0.29051,-0.47005 0.17336,-0.85464 1.03082,-0.85464 2.42382,0 1.86556,1.36061 -1.94098,4.73067 -3.21196,2.84365 -4.01329,4.64135 -3.57465,8.01933 0.0893,0.6875 0.0301,1.1978 -0.13151,1.134 -0.16161,-0.0638 -1.04863,-0.3155 -1.97114,-0.55932 z M 193,291.64778 c 0,-0.98014 -0.60908,-4.13014 -1.35351,-7 -1.27121,-4.90063 -1.24081,-5.21793 0.5,-5.21793 1.01943,0 1.7642,0.3375 1.65505,0.75 -0.41987,1.58672 1.43621,10.81145 2.41449,12 0.76592,0.93054 0.48643,1.25 -1.09359,1.25 -1.36926,0 -2.12244,-0.6324 -2.12244,-1.78207 z m 8.61842,-1.76992 c -0.93659,-2.44071 -0.74735,-2.97694 0.58158,-1.64801 1.72674,1.72674 5.75635,1.47731 6.4771,-0.40092 0.7413,-1.93179 -1.258,-3.36294 -4.7271,-3.38377 -5.14215,-0.0309 -6.69278,-4.82729 -2.45772,-7.60221 2.53583,-1.66154 5.50772,-1.34281 5.50772,0.5907 0,0.71804 -0.58947,0.75109 -1.80388,0.10116 -0.99214,-0.53098 -2.40771,-0.59222 -3.14572,-0.13611 -2.23701,1.38255 -0.37517,3.8796 3.42414,4.59235 5.65042,1.06003 7.15435,6.55753 2.18308,7.98008 -1.18669,0.33958 -2.89183,0.82012 -3.7892,1.06787 -0.89952,0.24834 -1.90904,-0.27263 -2.25,-1.16114 z m -72.38818,-2.99929 c -3.46199,-2.42488 -4.34814,-4.81208 -3.10743,-8.37116 1.2447,-3.57056 3.52374,-5.09136 7.56145,-5.04576 3.52243,0.0398 6.33675,2.10206 6.24806,4.57844 -0.0596,1.66479 -0.19569,1.62452 -1.143,-0.33824 -2.17516,-4.50682 -7.79736,-4.08102 -9.79505,0.74184 -2.33768,5.64365 1.41981,10.57619 6.55543,8.60546 0.89169,-0.34217 1.29375,-0.17501 0.94322,0.39215 -0.91884,1.48671 -4.7618,1.18895 -7.26268,-0.56273 z m 88.48894,-7.94872 c -2.81985,-5.74958 -4.54863,-6.86819 -5.42649,-3.51125 -0.28604,1.09382 -0.91891,1.74226 -1.40638,1.44099 -2.07601,-1.28305 -0.53435,-3.18572 4.63584,-5.72142 6.51069,-3.19314 6.10278,-3.12812 6.8822,-1.09698 0.44245,1.153 0.18844,1.44638 -0.89301,1.03139 -0.83124,-0.31898 -2.17226,-0.32634 -2.98005,-0.0164 -1.21609,0.46665 -1.02153,1.45029 1.13114,5.71861 1.42992,2.83526 3.02858,5.4299 3.55256,5.76586 0.72323,0.4637 -1.22988,1.88916 -2.58846,1.88916 -0.11544,0 -1.42375,-2.475 -2.90735,-5.5 z m 12.94749,-2.16667 c -1.33175,-1.33174 -0.60185,-1.85247 2.58333,-1.843 2.67234,0.008 3.31025,-0.41658 3.58896,-2.38845 0.32436,-2.29482 0.14815,-2.37196 -4.09093,-1.79093 -2.80023,0.38381 -4.85629,0.18079 -5.58896,-0.55188 -1.80161,-1.80161 -1.36626,-5.57782 0.77519,-6.72389 2.38627,-1.27709 5.06574,-1.34522 5.06574,-0.1288 0,0.49851 -0.81894,0.69222 -1.81986,0.43048 -2.12795,-0.55648 -4.6759,2.05196 -3.64064,3.72706 0.45019,0.72841 2.10894,0.9281 4.51432,0.54346 2.75249,-0.44014 4.23671,-0.174 5.37441,0.96371 2.24379,2.24379 1.95273,3.98409 -1.06309,6.35633 -2.70581,2.12839 -4.52674,2.57765 -5.69847,1.40591 z m -121.02482,-4.08333 c -0.34091,-2.0625 -0.62479,-5.2125 -0.63084,-7 -0.006,-1.7875 -0.4076,-3.25 -0.89232,-3.25 -1.27944,0 -6.14696,6.6384 -5.40878,7.37658 0.34288,0.34288 0.17342,0.62342 -0.37658,0.62342 -2.455957,0 -1.99005,-1.58309 1.6995,-5.77463 2.18194,-2.47882 3.96717,-5.17369 3.96717,-5.9886 0,-3.35321 3.00337,1.1116 3.11831,4.63567 0.0651,1.99516 0.41157,4.97756 0.76998,6.62756 l 0.65167,3 2.48002,-3.37044 c 1.36401,-1.85374 2.37292,-3.75005 2.24202,-4.21401 -0.13091,-0.46397 0.41147,-0.59435 1.20527,-0.28974 1.18374,0.45425 1.09147,0.93145 -0.51314,2.6538 -1.07603,1.15498 -2.9684,3.58649 -4.20527,5.40335 -1.23687,1.81685 -2.52748,3.30645 -2.86802,3.31021 -0.34053,0.004 -0.89808,-1.68067 -1.23899,-3.74317 z m 47.82471,-0.84009 c -1.14078,-0.4771 4.62589,-69.94666 6.57203,-79.1715 2.08876,-9.90085 8.8044,-14.2278 13.81098,-8.89854 3.00266,3.19619 3.73568,6.25457 5.60219,23.37396 4.23857,38.87581 6.22706,63.79955 5.14766,64.52086 -0.60468,0.40408 -2.47499,0.74158 -4.15624,0.75 l -3.05682,0.0153 -1.07869,-37.35182 c -0.69584,-24.09477 -1.4845,-38.11007 -2.22205,-39.48819 -0.62884,-1.17501 -2.33248,-2.43483 -3.78586,-2.7996 -2.07594,-0.52103 -3.1107,-0.11893 -4.82613,1.87538 -2.04126,2.37309 -2.22631,3.89883 -2.83841,23.40142 -0.36014,11.47454 -0.93776,28.40031 -1.28361,37.61281 l -0.62881,16.75 -3.1114,-0.079 c -1.71127,-0.0434 -3.57645,-0.27343 -4.14484,-0.51114 z M 138,266.12929 C 113.08481,255.24588 95.931568,236.44392 87.64093,210.92985 81.217801,191.16295 81.652556,172.39971 89.000187,152.26672 90.650084,147.7459 92,144.01743 92,143.98124 c 0,-0.0362 -1.917571,0.0867 -4.261268,0.27311 -3.194409,0.25406 -4.940917,-0.1957 -6.975932,-1.79644 -3.427109,-2.69577 -5.509959,-9.09281 -4.023097,-12.35612 0.61936,-1.35934 7.630224,-6.50531 16.909172,-12.41132 17.051785,-10.85338 27.392305,-15.26062 35.805315,-15.26062 2.66061,0 7.98087,-1.15238 11.92482,-2.582936 19.37425,-7.02746 41.55146,-7.31464 59.81136,-0.7745 4.0203,1.439936 10.90963,2.957486 15.30963,3.372326 4.4,0.41483 10.7,1.74017 14,2.94519 8.00703,2.92381 37.34446,21.60444 38.74025,24.66787 1.49038,3.27102 -0.53605,9.67297 -3.89918,12.3184 -2.90679,2.28648 -9.22419,2.77053 -11.14107,0.85365 -1.67741,-1.67741 -1.57265,-1.20389 1.74468,7.88582 4.87114,13.34723 6.3729,22.92321 5.84032,37.24077 -0.40958,11.01092 -0.89523,13.8161 -3.90806,22.57341 -9.3124,27.06812 -29.57404,48.07262 -55.0394,57.05732 l -3.76815,1.32948 -0.50949,-3.1934 c -0.28022,-1.75637 -1.88192,-18.0434 -3.55934,-36.1934 -4.00273,-43.31029 -4.43428,-45.36864 -11.10464,-52.96576 -1.91292,-2.1787 -3.58549,-5.66384 -4.44568,-9.2635 -1.62403,-6.79613 -1.91586,-29.5322 -0.41506,-32.33648 0.88681,-1.65702 2.14648,-1.93426 8.78856,-1.93426 9.75045,0 13.47192,-1.77581 20.88242,-9.96468 7.32375,-8.09301 8.13899,-8.45927 13.60942,-6.11437 2.45428,1.05203 4.6248,2.31561 4.82337,2.80797 0.76075,1.88622 31.2048,19.36432 33.22028,19.07194 2.83401,-0.41112 5.48767,-5.23347 4.09511,-7.44183 -1.36279,-2.16115 -31.35804,-21.35903 -33.37188,-21.35903 -0.84909,0 -3.86065,-0.96028 -6.69235,-2.13395 -8.11603,-3.36391 -11.38421,-2.28645 -20.02755,6.60269 -3.9256,4.03723 -8.1512,7.88296 -9.39023,8.54607 -2.74244,1.46771 -11.36437,0.52443 -14.35537,-1.57055 -2.70451,-1.89431 -12.52941,-1.89431 -15.23392,0 -2.86795,2.00879 -11.60822,3.04078 -14.1649,1.67249 -1.13426,-0.60704 -5.35986,-4.44887 -9.39022,-8.53739 -8.86624,-8.9942 -12.11352,-10.07244 -20.21803,-6.71331 -2.8317,1.17367 -5.84326,2.13395 -6.69235,2.13395 -1.96529,0 -31.992547,19.17181 -33.317784,21.27274 -1.435992,2.27652 0.789387,6.53584 3.811037,7.29423 1.963231,0.49274 5.66221,-1.31453 17.784007,-8.689 8.41786,-5.12112 15.46767,-9.70108 15.66625,-10.17769 0.19857,-0.4766 2.36909,-1.7273 4.82337,-2.77933 5.45514,-2.33835 6.15249,-2.02466 13.75572,6.18774 7.68011,8.29543 11.02571,9.89131 20.73612,9.89131 6.64208,0 7.90175,0.27724 8.78856,1.93426 1.44292,2.69613 1.21629,27.54469 -0.30378,33.30644 -0.71656,2.71613 -2.59763,6.13264 -4.40464,8 -7.04159,7.27679 -7.78245,10.90725 -11.78674,57.7593 -2.7655,32.35755 -3.08648,35.00704 -4.23871,34.98779 -0.40202,-0.007 -4.10595,-1.48647 -8.23095,-3.28835 z m 3.528,-8.10183 c 1.92362,-2.93582 5.11794,-23.66962 3.62684,-23.54122 -0.68505,0.059 -16.45268,18.53416 -16.92789,19.83467 -0.31283,0.8561 8.64641,6.04786 10.5,6.08461 0.67482,0.0134 1.93529,-1.05675 2.80105,-2.37806 z M 213.03324,257.913 C 215.76496,256.52874 218,255.01932 218,254.55874 c 0,-0.90136 -15.7862,-19.44914 -16.93768,-19.90069 -0.93992,-0.36859 -0.21797,11.19829 1.04683,16.7718 1.11615,4.91846 3.3597,9 4.94715,9 0.5556,0 3.24523,-1.13258 5.97694,-2.51685 z M 132.03995,232.99782 C 145.94363,221.9331 147,220.8572 147,217.76114 c 0,-1.83221 -0.22928,-3.33129 -0.50952,-3.33129 -1.02662,0 -40.49048,20.02663 -40.49048,20.54761 0,1.11751 9.36643,10.49691 10.20369,10.21783 0.48192,-0.16064 7.60824,-5.6495 15.83626,-12.19747 z m 107.7469,1.29259 c -0.26041,-0.78125 -39.34822,-19.76754 -40.83605,-19.83548 -0.30206,-0.0138 -0.36361,1.56461 -0.13678,3.50756 0.37681,3.22769 1.76222,4.57364 16.0492,15.59216 l 15.63678,12.05951 4.7941,-5.20986 c 2.63675,-2.86543 4.65849,-5.61668 4.49275,-6.11389 z M 120.25729,214.88103 C 148.74727,207.43916 148,207.70383 148,205.0549 c 0,-2.08851 -0.36976,-2.20199 -6.25,-1.91822 -3.4375,0.16589 -15.88482,0.74705 -27.66072,1.29145 -11.7759,0.54441 -21.648619,1.22773 -21.93938,1.51849 -0.512621,0.51262 2.235991,9.19127 4.032737,12.73323 0.488252,0.9625 1.325177,1.75 1.859833,1.75 0.534656,0 10.53132,-2.49697 22.21482,-5.54882 z m 130.85167,0.79882 c 1.12084,-2.6125 2.27441,-5.92906 2.56349,-7.37013 0.46816,-2.3338 0.15961,-2.68431 -2.82342,-3.20737 -1.84197,-0.32298 -14.48653,-0.89695 -28.09903,-1.27547 L 198,203.13864 v 2.41619 c 0,2.3199 0.96639,2.66058 24.25,8.54875 13.3375,3.37291 24.82849,6.17615 25.53554,6.22942 0.70704,0.0533 2.20258,-2.04065 3.32342,-4.65315 z M 149.11349,193.14334 c -0.87649,-0.87649 -57.660842,-21.71349 -59.172929,-21.71349 -0.423457,0 -1.089917,3.41483 -1.481022,7.5885 -0.549098,5.85969 -0.397669,7.8919 0.66468,8.9202 0.817287,0.7911 10.306609,2.58232 23.375781,4.41245 35.72767,5.00309 34.83225,4.92396 36.25375,3.20365 0.73673,-0.89161 0.88508,-1.88597 0.35974,-2.41131 z m 80.38489,-0.77138 c 14.8491,-2.27031 27.34578,-4.64855 27.77038,-5.28498 0.66623,-0.99857 -0.0302,-15.60785 -0.78507,-16.4685 -0.37824,-0.43125 -58.79804,21.7716 -59.76647,22.71466 -0.43053,0.41925 -0.48598,1.53575 -0.12321,2.4811 0.47278,1.23204 1.40249,1.57251 3.28278,1.20219 1.44277,-0.28415 14.77248,-2.37416 29.62159,-4.64447 z M 144,180.51318 c 0,-1.05416 0.53437,-2.09479 1.1875,-2.3125 0.76757,-0.25585 0.42776,-1.15557 -0.96095,-2.54428 -1.8408,-1.8408 -2.47625,-1.97505 -4.4375,-0.9375 -2.84156,1.50324 -2.57874,4.83927 0.50173,6.3686 3.24848,1.61273 3.70922,1.5414 3.70922,-0.57432 z m 62.2,-0.0833 c 1.34105,0 1.8,-0.77996 1.8,-3.05902 0,-1.87028 -0.40562,-2.80833 -1.0438,-2.41391 -0.5741,0.35481 -1.66899,0.12626 -2.43309,-0.50789 -1.08466,-0.90018 -1.87206,-0.67023 -3.591,1.04871 -1.9725,1.9725 -2.03152,2.29697 -0.56692,3.11661 0.89915,0.50318 1.63481,1.65752 1.63481,2.56519 0,1.28357 0.26667,1.38364 1.2,0.45031 0.66,-0.66 2.01,-1.2 3,-1.2 z M 128,171.55185 c 0,-1.03291 1.0125,-2.58431 2.25,-3.44755 1.85209,-1.29195 1.94616,-1.57879 0.53194,-1.62197 -0.94494,-0.0289 -2.32486,-1.21056 -3.0665,-2.62602 -1.19874,-2.28788 -1.4934,-2.39889 -2.65438,-1 -0.71827,0.86546 -2.43095,1.57357 -3.80595,1.57357 -2.03316,0 -2.28236,0.26224 -1.3345,1.40435 0.67329,0.81126 0.88515,2.52139 0.50165,4.04937 -0.61054,2.43258 -0.46213,2.59439 1.84785,2.01462 1.4107,-0.35406 2.80457,-0.15653 3.17981,0.45063 1.06273,1.71953 2.55008,1.25467 2.55008,-0.797 z m 95.20722,0.5514 c 2.3302,0.0303 2.56901,-0.22298 1.71481,-1.81905 -0.66293,-1.23871 -0.64873,-2.49647 0.0428,-3.78858 1.4171,-2.64789 1.31766,-2.95237 -0.78468,-2.4026 -1.00092,0.26175 -2.40602,-0.23038 -3.12244,-1.09362 -1.76642,-2.1284 -3.0577,-1.97506 -3.0577,0.36309 0,1.06294 -0.9,2.21826 -2,2.56739 -2.36859,0.75176 -2.59666,2.05706 -0.5,2.86163 0.825,0.31658 1.5,1.53787 1.5,2.71397 0,1.67005 0.38327,1.96581 1.75,1.35045 0.9625,-0.43336 2.96825,-0.77207 4.45722,-0.75268 z M 153,168.92988 c 0,-0.825 0.675,-1.5 1.5,-1.5 0.825,0 1.5,-0.45 1.5,-1 0,-0.55 -0.39752,-1 -0.88337,-1 -0.48585,0 -1.10519,-0.84824 -1.3763,-1.88497 -0.37246,-1.42431 -1.13414,-1.7624 -3.11663,-1.38343 -1.44304,0.27586 -2.6237,1.08729 -2.6237,1.80319 0,0.7159 -0.23118,1.90407 -0.51373,2.64038 -0.28522,0.74328 0.49319,1.83704 1.75,2.45901 3.20405,1.58559 3.76373,1.56564 3.76373,-0.13418 z m 44.32244,-0.5 c 1.5166,0 1.68185,-0.28991 0.78275,-1.37325 -0.62683,-0.75529 -0.87157,-2.07199 -0.54385,-2.926 0.43843,-1.14254 -0.15141,-1.63833 -2.23275,-1.87674 -3.89289,-0.44592 -6.10683,3.3477 -3.53954,6.06504 0.97996,1.03724 2.11683,1.4478 2.66095,0.96095 0.5225,-0.4675 1.8151,-0.85 2.87244,-0.85 z m -82.53236,-9.61805 2.61673,-2.11806 -2.29181,-0.72739 c -1.2605,-0.40007 -2.84643,-2.04644 -3.52429,-3.6586 -1.22892,-2.92274 -1.23779,-2.92535 -3.06659,-0.90456 -1.02999,1.13813 -3.09151,2.02666 -4.70216,2.02666 -2.80834,0 -2.83487,0.0507 -1.27394,2.43294 1.21656,1.85671 1.34045,2.90695 0.52305,4.43426 -1.54712,2.89082 -1.35786,3.24288 1.37459,2.55708 1.51738,-0.38084 3.32028,0.003 4.75,1.0105 2.19935,1.55031 2.31968,1.52045 2.64101,-0.65523 0.18517,-1.25375 1.5142,-3.23267 2.95341,-4.3976 z m 121.28146,5.03185 c 0.89794,-1.08195 2.23306,-1.40288 4.19981,-1.00953 2.75174,0.55035 2.85398,0.44282 2.23944,-2.35515 -0.35417,-1.6125 -0.14815,-3.85821 0.45782,-4.99047 0.99942,-1.86743 0.82062,-2.05865 -1.92495,-2.05865 -1.94371,0 -3.47363,-0.71563 -4.27573,-2 C 235.07178,148.71391 234,148.91582 234,151.95132 c 0,1.71911 -0.7955,2.88389 -2.5,3.66051 -3.02263,1.37721 -3.10387,1.95983 -0.5,3.58598 1.13065,0.7061 2,2.33202 2,3.74054 0,2.85612 1.16705,3.2001 3.07154,0.90533 z m -94.06887,-9.12475 c 2.46924,-0.64572 2.47029,-0.81609 0.02,-3.26637 -1.08824,-1.08824 -1.71459,-2.66197 -1.39301,-3.5 0.66717,-1.73861 -1.16072,-2.09047 -2.19193,-0.42194 -0.37417,0.60541 -1.86322,0.86426 -3.30902,0.57522 -2.51127,-0.50205 -2.633,-0.32783 -2.72461,3.89926 -0.0771,3.55853 0.24151,4.42478 1.62756,4.42478 0.94789,0 2.31647,0.71456 3.04129,1.58791 1.18249,1.42482 1.40077,1.36378 2.12511,-0.59431 0.44399,-1.20023 1.70606,-2.41728 2.8046,-2.70455 z m 69.54702,1.71095 c 2.51751,0 3.27169,-1.37433 1.39176,-2.53618 -0.59115,-0.36536 -0.78934,-1.8799 -0.44885,-3.43013 0.55981,-2.54879 0.4005,-2.73591 -1.9472,-2.28712 -1.40629,0.26883 -3.22931,-0.0693 -4.05115,-0.75134 C 205.23593,146.3808 205,146.58217 205,148.70045 c 0,1.3835 -0.675,2.77447 -1.5,3.09106 -1.95606,0.75061 -1.93835,2.63837 0.0248,2.63837 0.83861,0 1.99526,1.2375 2.57032,2.75 0.92791,2.44055 1.15577,2.55308 2.02494,1 0.53865,-0.9625 2.08201,-1.75 3.42968,-1.75 z m -85.5129,-11.59677 c 0.54301,-1.42822 1.88187,-2.8307 2.97525,-3.11663 2.53815,-0.66374 2.53353,-1.92425 -0.012,-3.2866 -1.3439,-0.71923 -2,-2.09382 -2,-4.19017 0,-3.02033 -0.0616,-3.06403 -1.93284,-1.37061 -1.4029,1.2696 -2.77378,1.56449 -5,1.07553 -3.2968,-0.7241 -3.59928,-0.37754 -2.10591,2.41285 0.67447,1.26025 0.53478,2.35944 -0.46819,3.68426 -2.0731,2.73827 -1.83019,3.38814 1.26635,3.38814 1.67645,0 3.24966,0.78494 4.00848,2 1.62865,2.60789 2.08191,2.52515 3.26886,-0.59677 z m 96.73114,0.59677 c 0.8003,-1.28149 2.33202,-2 4.2636,-2 2.95014,0 2.98105,-0.0512 1.44589,-2.39411 -1.03608,-1.58126 -1.33428,-3.32801 -0.87831,-5.14473 0.65297,-2.60167 0.5414,-2.71324 -2.06027,-2.06027 -1.81672,0.45597 -3.56347,0.15777 -5.14473,-0.87831 C 218.05117,131.4173 218,131.44821 218,134.39835 c 0,1.93158 -0.71851,3.4633 -2,4.2636 -2.6207,1.63666 -2.52393,2.41962 0.38941,3.15082 1.44809,0.36344 2.63746,1.58802 3.01905,3.1084 0.76046,3.02991 1.69644,3.17164 3.35947,0.50871 z M 90.038955,259.24129 C 86.541865,255.4876 87.49541,250.25926 92.112552,247.87165 97.363815,245.15611 103,248.57609 103,254.47804 c 0,6.0139 -8.787276,9.24326 -12.961045,4.76325 z m 8.884122,-1.88836 c 3.365943,-3.36595 3.583003,-4.10894 2.041743,-6.98882 -1.332808,-2.49037 -5.011842,-2.47171 -8.207021,0.0416 -3.192428,2.51116 -3.932659,5.32946 -2.090558,7.95943 2.028618,2.89626 4.671369,2.57223 8.255836,-1.01223 z m 145.885373,0.18279 c -3.44247,-2.80498 -4.39553,-4.11879 -3.57966,-4.93466 0.81586,-0.81586 2.25868,-0.0548 5.41921,2.85845 4.53372,4.17904 6.18286,4.73948 8.152,2.77034 2.18407,-2.18407 1.29015,-5.51366 -2.3348,-8.69641 -1.94413,-1.70697 -3.99569,-3.10359 -4.55901,-3.10359 -0.56332,0 -0.72009,-0.4921 -0.34838,-1.09355 1.0355,-1.67546 9.44219,7.05137 9.44219,9.80176 0,2.72778 -3.28901,6.30629 -5.75,6.2561 -0.9625,-0.0196 -3.8612,-1.75592 -6.44155,-3.85844 z M 259,244.8236 c -2.475,-1.83989 -5.3426,-3.35616 -6.37244,-3.3695 -4.16666,-0.054 0.61224,-2.84303 6.9062,-4.03062 3.55643,-0.67105 6.46624,-1.56177 6.46624,-1.97937 0,-0.41761 -2.07662,-1.6582 -4.6147,-2.75687 -2.53809,-1.09867 -4.16019,-2.27848 -3.60467,-2.62181 1.20849,-0.74689 12.38148,6.2931 11.71055,7.3787 -0.25662,0.41522 -2.55655,1.06835 -5.11094,1.45141 -2.5544,0.38305 -5.59743,1.05349 -6.7623,1.48985 -1.95461,0.73221 -1.80947,0.97646 1.88206,3.16725 2.2,1.30561 4.3375,2.2621 4.75,2.12553 0.4125,-0.13658 0.75,0.17512 0.75,0.69266 0,2.08051 -1.71486,1.63829 -6,-1.54723 z M 78.58345,243.78672 C 78.23666,242.883 78.188515,241.908 78.476461,241.62006 78.764408,241.33211 79,241.39236 79,241.75394 c 0,0.36158 2.270441,-0.73959 5.045425,-2.44706 5.20371,-3.20187 5.921212,-5.13835 2.111416,-5.69852 -2.282639,-0.33563 -2.03061,-2.17851 0.29793,-2.17851 1.722945,0 7.910768,9.59953 7.067418,10.9641 -1.078407,1.7449 -2.364846,1.15022 -1.841451,-0.85124 0.271424,-1.03793 0.02103,-2.17914 -0.556421,-2.53603 -1.05472,-0.65185 -9.334098,3.98156 -9.95765,5.57263 -0.544214,1.38863 -1.906613,0.97061 -2.583217,-0.79259 z m -5.847293,-11.60687 c -0.905356,-0.6875 -2.074105,-2.40565 -2.59722,-3.8181 -0.777455,-2.09919 -0.592193,-2.79225 1.01463,-3.79573 1.800815,-1.12463 1.872192,-1.05282 0.850692,0.85587 -1.462926,2.7335 -0.363177,6.00796 2.017816,6.00796 1.403416,0 2.047087,-0.96146 2.510525,-3.75 0.902765,-5.432 1.247185,-6.22827 2.981964,-6.89396 3.388627,-1.30034 7.535877,6.25868 4.472546,8.15193 -0.623311,0.38522 -0.911777,-0.64979 -0.75,-2.69099 0.216998,-2.73794 -0.08624,-3.31698 -1.73711,-3.31698 -1.616497,0 -2.05772,0.76701 -2.301017,4 -0.262164,3.48371 -2.21068,6.5 -4.198983,6.5 -0.339757,0 -1.358487,-0.5625 -2.263843,-1.25 z M 269,227.78798 c -2.475,-1.23205 -5.52833,-2.26664 -6.78518,-2.2991 -1.91892,-0.0496 -2.12439,-0.35948 -1.28198,-1.93354 0.96794,-1.80862 1.17131,-1.79214 5.78518,0.46873 2.63009,1.28878 5.56948,2.35731 6.53198,2.37451 1.86164,0.0333 2.18148,0.87141 0.98469,2.58037 -0.48526,0.69293 -2.26247,0.28858 -5.23469,-1.19097 z m -1.82569,-10.67258 c -4.5718,-4.86646 -1.39059,-12.08555 5.32569,-12.08555 4.45666,0 7.5,3.04772 7.5,7.51078 0,6.35692 -8.35258,9.33618 -12.82569,4.57477 z m 9.89143,-0.72073 c 2.62394,-1.40429 2.46538,-5.4794 -0.28825,-7.40812 -2.63989,-1.84905 -7.88962,-2.04457 -9.57749,-0.3567 -4.51938,4.51938 3.75763,11.03378 9.86574,7.76482 z M 66.556704,216.20734 c -6.052496,-8.64114 5.735847,-17.23332 12.161493,-8.86415 1.822788,2.37412 1.530214,5.50114 -0.790777,8.4518 -2.764613,3.51464 -9.038434,3.74215 -11.370716,0.41235 z m 10.101586,-2.15999 c 2.48958,-2.14144 2.649154,-2.64732 1.577202,-5 -0.935577,-2.05336 -1.903614,-2.6175 -4.491547,-2.6175 -4.188482,0 -7.743945,2.45941 -7.743945,5.3567 0,5.01745 5.979064,6.2857 10.65829,2.2608 z M 63.035184,198.49559 C 62.465833,197.43175 62,195.06665 62,193.23982 v -3.32152 l 5.731971,-0.3143 c 3.152584,-0.17286 6.302584,-0.78786 7,-1.36667 0.964428,-0.8004 1.268029,-0.4749 1.268029,1.3595 0,1.96821 -0.500798,2.40461 -2.722537,2.37244 -1.81465,-0.0263 -2.839708,0.54516 -3.073906,1.7136 -0.486738,2.42839 2.766138,3.50891 4.289927,1.425 1.600949,-2.18942 2.720816,-0.94696 1.389167,1.54125 -0.750271,1.40189 -1.69976,1.79246 -3.350394,1.37818 -1.422847,-0.35711 -2.77625,-0.008 -3.540279,0.91222 -1.727406,2.08139 -4.724833,1.85801 -5.956794,-0.44393 z M 69,194.39467 c 0,-1.51647 -0.684574,-1.96482 -3,-1.96482 -2.222222,0 -3,0.46667 -3,1.8 0,0.99 0.518938,2.31894 1.153196,2.9532 C 65.755147,198.785 69,196.91822 69,194.39467 Z m 199,4.79012 c 0,-0.90478 2.51483,-3.69362 5.5885,-6.19742 6.02012,-4.90395 5.76271,-6.16757 -1.09333,-5.36716 -2.28425,0.26667 -3.49517,-0.009 -3.49517,-0.796 0,-1.1978 4.18654,-1.02792 11.64748,0.47262 l 3.14749,0.63302 -5.97915,4.75005 c -6.50543,5.16815 -6.26829,6.28927 1.1801,5.57895 2.68224,-0.25579 4.00408,0.0188 4.00408,0.8317 0,1.16205 -1.62085,1.1371 -10.10417,-0.15555 -1.43229,-0.21825 -3.11979,0.11881 -3.75,0.74902 C 268.28472,200.54513 268,200.42108 268,199.18479 Z m -97.21307,-27.50494 c -0.19785,-0.9625 0.3094,-2.25995 1.12722,-2.88323 2.03649,-1.55204 4.97544,0.33944 4.33467,2.78975 -0.6308,2.41218 -4.97001,2.48645 -5.46189,0.0935 z m 244.69058,126.57829 c 1.41438,-0.64443 3.57306,-2.78193 4.79705,-4.75 1.97816,-3.18068 2.22544,-4.91169 2.22544,-15.57829 0,-13.24681 -1.12577,-16.66629 -6.53983,-19.86446 -3.72094,-2.19801 -10.72306,-2.07755 -14.54021,0.25014 -4.99837,3.048 -6.41996,7.39125 -6.41996,19.61432 0,12.22307 1.42159,16.56632 6.41996,19.61432 3.48921,2.12771 10.20601,2.46885 14.05755,0.71397 z M 403.86078,292.5182 C 401.60443,290.69111 401.5,290.04582 401.5,277.92985 c 0,-12.11597 0.10443,-12.76126 2.36078,-14.58835 4.40117,-3.56385 10.03711,-1.94062 12.09991,3.48494 1.37495,3.61641 1.33143,18.467 -0.0659,22.4753 -1.84093,5.28087 -7.58771,6.81688 -12.03404,3.21646 z m 62.45496,5.79461 c 3.85661,-1.97229 5.63852,-5.11881 5.66202,-9.9981 0.0296,-6.14049 -2.61256,-9.35599 -10.65144,-12.96278 -7.27956,-3.26612 -9.2364,-6.24141 -7.0797,-10.76436 C 456.7738,259.28764 466,261.24796 466,267.08484 c 0,1.9389 0.51954,2.34501 3,2.34501 3.4997,0 3.96901,-2.22547 1.48307,-7.03273 -2.76404,-5.34508 -11.48734,-7.68449 -17.48307,-4.68862 -3.59916,1.79839 -6.20954,7.40992 -5.45256,11.72135 0.83662,4.76499 3.82564,7.74457 11.05393,11.01903 6.15811,2.78965 7.39863,4.21339 7.39863,8.49133 0,5.70275 -8.15236,7.65399 -11.92742,2.85478 -1.13992,-1.44917 -2.07258,-3.24917 -2.07258,-4 0,-0.86074 -1.14852,-1.36514 -3.10841,-1.36514 -2.88275,0 -3.06096,0.19963 -2.45487,2.75 0.86662,3.64665 3.69374,7.461 6.65968,8.98526 3.00753,1.54563 10.32595,1.6274 13.21934,0.1477 z m 100.15147,-2.15017 c 7.09523,-7.09523 7.43546,-28.33339 0.57686,-36.0095 -2.36062,-2.64199 -3.58886,-3.13508 -8.7368,-3.50745 -5.55106,-0.40152 -6.24549,-0.20898 -9.47598,2.62742 -4.34214,3.81246 -5.8329,8.61626 -5.82571,18.77276 0.007,10.36015 1.27803,14.5478 5.55351,18.30171 3.02189,2.65326 4.2851,3.08227 9.07571,3.08227 4.95137,0 5.92557,-0.36037 8.83241,-3.26721 z m -14.5429,-4.31335 c -2.27149,-2.4179 -2.42431,-3.29534 -2.42431,-13.91944 0,-10.6241 0.15282,-11.50154 2.42431,-13.91944 2.84559,-3.02898 6.88688,-3.36416 10.01426,-0.83056 5.38647,4.36376 5.38647,25.13624 0,29.5 -3.12738,2.5336 -7.16867,2.19842 -10.01426,-0.83056 z m 150.10842,6.06363 C 705.34506,296.20005 708,291.78051 708,287.97951 c 0,-2.16629 -0.45109,-2.54966 -3,-2.54966 -2.45518,0 -3,0.41361 -3,2.27749 0,3.71232 -2.7415,6.72251 -6.12245,6.72251 -6.84803,0 -8.87755,-3.77211 -8.87755,-16.5 0,-12.72789 2.02952,-16.5 8.87755,-16.5 3.38095,0 6.12245,3.01019 6.12245,6.72251 0,1.86388 0.54482,2.27749 3,2.27749 2.54891,0 3,-0.38337 3,-2.54966 0,-3.33894 -2.42341,-7.93307 -5.21679,-9.88964 -1.32575,-0.92858 -4.33465,-1.5607 -7.42899,-1.5607 -4.19284,0 -5.82341,0.52391 -8.41347,2.70331 -4.72634,3.97695 -5.94075,7.85049 -5.94075,18.94885 0,15.1801 3.90886,21.2157 13.79966,21.3078 2.36481,0.022 5.6197,-0.64258 7.23307,-1.47689 z M 800.981,297.782 c 2.93324,-1.7327 6.019,-7.05734 6.019,-10.38608 0,-1.49886 -0.6832,-1.96607 -2.875,-1.96607 -2.3677,0 -2.97662,0.50809 -3.45089,2.87946 -0.80215,4.01074 -3.24633,6.12054 -7.09055,6.12054 -6.05391,0 -7.08356,-2.42651 -7.08356,-16.69334 0,-11.91278 0.10791,-12.57074 2.36078,-14.39501 4.74525,-3.84247 10.6218,-1.74875 11.81333,4.20889 0.47427,2.37137 1.08319,2.87946 3.45089,2.87946 2.25348,0 2.875,-0.45374 2.875,-2.09887 0,-3.55176 -3.12384,-8.91381 -6.08519,-10.44518 -3.92082,-2.02754 -10.79964,-1.8236 -14.49485,0.42973 -5.33128,3.25101 -6.63122,7.60458 -6.25202,20.93837 0.29541,10.38732 0.59402,12.04324 2.70566,15.0039 1.30547,1.83037 3.33047,3.71434 4.5,4.18661 3.54422,1.4312 10.64867,1.08536 13.6074,-0.66241 z m 126.33474,0.53081 c 3.85661,-1.97229 5.63852,-5.11881 5.66202,-9.9981 0.0296,-6.14049 -2.61256,-9.35599 -10.65144,-12.96278 -7.27956,-3.26612 -9.2364,-6.24141 -7.0797,-10.76436 C 917.7738,259.28764 927,261.24796 927,267.08484 c 0,1.9389 0.51954,2.34501 3,2.34501 3.4997,0 3.96901,-2.22547 1.48307,-7.03273 -2.76404,-5.34508 -11.48734,-7.68449 -17.48307,-4.68862 -3.59916,1.79839 -6.20954,7.40992 -5.45256,11.72135 0.83662,4.76499 3.82564,7.74457 11.05393,11.01903 6.15811,2.78965 7.39863,4.21339 7.39863,8.49133 0,5.70275 -8.15236,7.65399 -11.92742,2.85478 -1.13992,-1.44917 -2.07258,-3.24917 -2.07258,-4 0,-0.86074 -1.14852,-1.36514 -3.10841,-1.36514 -2.88275,0 -3.06096,0.19963 -2.45487,2.75 0.86662,3.64665 3.69374,7.461 6.65968,8.98526 3.00753,1.54563 10.32595,1.6274 13.21934,0.1477 z m 98.40906,-2.4078 c 3.29,-3.28992 3.493,-3.8571 3.0459,-8.51013 -0.5882,-6.12069 -2.5769,-8.50143 -9.7707,-11.69678 -6.9497,-3.08689 -9,-4.93094 -9,-8.0945 0,-3.43808 2.7274,-6.17375 6.155,-6.17375 3.2999,0 6.845,3.10742 6.845,6 0,1.55556 0.6667,2 3,2 3.5082,0 3.8132,-1.48409 1.3652,-6.64292 -2.0275,-4.27256 -5.8967,-6.35708 -11.7998,-6.35708 -6.0669,0 -10.4532,3.74233 -11.237,9.58725 -0.8757,6.53044 1.4918,9.86432 9.9168,13.96453 3.9374,1.91619 7.5111,4.03844 7.9415,4.7161 1.3179,2.07468 0.9024,5.97623 -0.8417,7.90338 -3.5748,3.9501 -12.345,0.98673 -12.345,-4.17126 0,-1.55556 -0.6667,-2 -3,-2 -4.5193,0 -4.1211,4.11417 0.8824,9.11765 3.6044,3.60445 4.2916,3.88235 9.6,3.88235 5.2087,0 6.0313,-0.3137 9.2424,-3.52484 z m 78.2009,2.06326 c 4.8674,-2.51704 6.0743,-7.49588 6.0743,-25.05866 v -15.47976 h -3 -3 v 15.56574 c 0,18.97795 -0.8633,21.38611 -7.6786,21.41895 -5.9203,0.0285 -6.3214,-1.24411 -6.3214,-20.05612 v -16.92857 h -3 -3 l 0.035,17.25 c 0.038,18.42745 0.5654,20.8552 5.0747,23.35449 3.2061,1.77702 11.3214,1.74083 14.8156,-0.0661 z m 137.6543,-0.4241 c 5.0244,-3.06382 6.7523,-8.08331 6.7523,-19.61432 0,-11.53101 -1.7279,-16.5505 -6.7523,-19.61432 -3.4892,-2.12771 -10.206,-2.46885 -14.0575,-0.71397 -5.0626,2.30665 -6.964,7.21702 -7.3716,19.03697 -0.3198,9.27368 -0.091,11.28373 1.7085,15 1.1427,2.36023 3.3294,5.06685 4.8592,6.01471 3.7237,2.30723 10.9864,2.25393 14.8614,-0.10907 z m -11.8438,-4.36432 C 1227.0534,291.14261 1226,286.8157 1226,277.83263 c 0,-13.20922 3.0489,-17.86225 10.4818,-15.9967 4.4145,1.10796 5.7301,5.48198 5.3536,17.79971 -0.3093,10.12165 -0.5189,11.12324 -2.6962,12.8845 -2.7033,2.18677 -6.9955,2.48791 -9.403,0.65971 z m -863.44345,3.23436 c 5.11069,-4.02007 5.83238,-12.93496 1.43482,-17.72388 -1.94547,-2.11861 -1.96433,-2.34138 -0.3493,-4.12597 3.89951,-4.30891 2.5763,-13.4829 -2.32288,-16.10487 -1.05815,-0.5663 -5.77849,-1.02964 -10.48965,-1.02964 H 346 v 20.5 20.5 h 8.86514 c 7.37387,0 9.29619,-0.33907 11.42761,-2.01564 z M 352,286.37759 v -7.05226 l 5.24166,0.30226 c 4.63006,0.26699 5.39897,0.63173 6.5899,3.12599 2.77085,5.80319 -0.60817,10.67627 -7.40299,10.67627 H 352 Z m 0,-17.81769 v -6.13005 h 4.42857 c 4.93978,0 7.57143,1.87006 7.57143,5.3803 0,3.802 -2.28195,5.78444 -7.31081,6.35127 L 352,274.68995 Z m 158,11.86995 v -18 h 5.5 c 5.2,0 5.5,-0.13636 5.5,-2.5 v -2.5 h -14 -14 v 2.5 c 0,2.36364 0.3,2.5 5.5,2.5 h 5.5 v 18 18 h 3 3 z m 93.22254,3.75 0.27746,-14.25 7.42481,14.25 c 7.28817,13.98776 7.486,14.25 10.75,14.25 H 625 v -20.5 -20.5 h -3 -3 v 14.7 c 0,8.64884 -0.3669,14.30894 -0.89131,13.75 -0.49022,-0.5225 -4.12951,-7.1375 -8.08731,-14.7 -6.73675,-12.87247 -7.38189,-13.75 -10.10869,-13.75 H 597 v 20.5 20.5 h 2.97254 2.97255 z M 747,290.05481 c 0,-7.85633 0.28503,-8.98666 4.60209,-18.25 7.09217,-15.21807 6.91447,-14.37496 3.02982,-14.37496 -3.25842,0 -3.38898,0.17418 -7.20158,9.60806 l -3.88301,9.60806 -2.63001,-5.8898 c -1.4465,-3.23939 -3.23505,-7.56301 -3.97455,-9.60806 -1.1817,-3.26795 -1.74408,-3.71826 -4.64365,-3.71826 -1.81451,0 -3.29911,0.1895 -3.29911,0.4211 0,0.23161 2.475,5.89211 5.5,12.5789 5.18053,11.4516 5.5,12.6179 5.5,20.0789 v 7.9211 h 3.5 3.5 z m 106.81955,6.12504 c -0.29792,-2.09771 -0.87794,-2.26966 -8.56955,-2.54044 L 837,293.34897 v -17.95956 -17.95956 h -3 -3 v 20.5 20.5 h 11.56955 c 11.42607,0 11.56559,-0.0279 11.25,-2.25 z M 883,277.92985 v -20.5 h -3 -3 v 20.5 20.5 h 3 3 z m 88,2.5 v -18 h 5.5 c 5.2,0 5.5,-0.13636 5.5,-2.5 v -2.5 h -14 -14 v 2.5 c 0,2.36364 0.3,2.5 5.5,2.5 h 5.5 v 18 18 h 3 3 z m 170.0224,3.75 0.022,-14.25 7.5378,14.25 c 7.0842,13.39251 7.7146,14.25 10.4776,14.25 H 1162 v -20.5 -20.5 h -3 -3 l -0.021,14.75 -0.021,14.75 -7.7247,-14.75 c -7.1012,-13.56089 -7.946,-14.75 -10.4786,-14.75 H 1135 v 20.5 20.5 h 3 3 z m 53.9776,-6.25 v -20.5 h -3 -3 v 20.5 20.5 h 3 3 z m 84.2233,5.75 0.2767,-14.75 7.5296,14.5 c 7.1452,13.75974 7.694,14.516 10.75,14.81336 l 3.2204,0.31336 v -20.56336 -20.56336 h -2.9733 -2.9732 l -0.2768,14.53014 -0.2767,14.53013 -7.5,-14.51119 c -7.3117,-14.14691 -7.5816,-14.51166 -10.75,-14.53013 l -3.25,-0.019 v 20.5 20.5 h 2.9733 2.9732 z M 571.41611,210.9762 c 12.14419,-3.08062 24.06457,-9.32818 31.57056,-16.54635 5.55616,-5.34311 10.61589,-13.21602 9.5755,-14.8994 -0.28241,-0.45695 -7.53776,-5.01854 -16.12301,-10.13687 -12.50456,-7.45494 -15.78848,-9.02337 -16.50904,-7.8849 -0.49472,0.78164 -0.90639,1.74301 -0.91481,2.13637 -0.0341,1.59237 -6.54908,8.01195 -10.40246,10.25014 -2.26207,1.31389 -6.93356,2.89298 -10.38109,3.50908 -16.78954,3.00046 -30.74073,-5.89731 -36.28572,-23.14225 -2.79495,-8.69228 -2.38966,-21.34552 0.96197,-30.0338 2.91343,-7.55234 9.62733,-14.90455 16.31256,-17.86345 7.74651,-3.42862 19.28047,-3.22559 27.37878,0.48193 6.95799,3.18547 9.90383,5.73477 12.51829,10.83315 1.05766,2.0625 2.13406,3.75 2.39201,3.75 0.25796,0 7.20557,-4.78263 15.43914,-10.62806 l 14.97013,-10.62806 -1.60749,-3.121936 c -0.88412,-1.71706 -4.80338,-6.31298 -8.70946,-10.21314 -12.70734,-12.68807 -27.87299,-18.35805 -49.19201,-18.39143 -23.97192,-0.0375 -43.39528,8.92729 -57.32739,26.45938 -11.33001,14.257626 -15.51826,26.378466 -15.55739,45.023246 -0.0292,13.92018 1.90773,21.64609 8.77475,35 6.03815,11.74204 20.02704,25.54273 31.70007,31.27358 11.03587,5.41804 18.10707,7.04102 31.12178,7.14311 8.18897,0.0642 12.83716,-0.47867 20.29433,-2.37034 z m 136.8808,0.50559 c 11.74971,-3.00507 18.34296,-6.65905 26.43753,-14.65168 5.62913,-5.55824 8.11975,-9.00251 11.22413,-15.5218 7.91801,-16.62803 8.97998,-25.53646 9.01563,-75.62846 L 755,69.429854 H 734.54925 714.0985 l -0.30061,43.249996 c -0.29808,42.88653 -0.3206,43.29964 -2.67978,49.15685 -3.42142,8.49445 -9.31957,14.07798 -16.43069,15.55424 -16.03966,3.32982 -26.85555,-6.27077 -29.61057,-26.28345 C 664.46838,146.68745 664,127.22353 664,106.35749 V 69.429854 h -20.07341 -20.07341 l 0.40461,44.249996 c 0.37444,40.95152 0.5608,44.84634 2.50008,52.25 2.81882,10.76153 5.45918,16.64881 10.86302,24.22161 7.62096,10.67982 18.12427,17.72709 31.74115,21.29695 10.07735,2.64192 28.67324,2.65786 38.93487,0.0334 z m 575.00569,0.35693 c 15.967,-3.52983 27.855,-12.1099 33.5173,-24.1908 2.4761,-5.28285 2.6801,-6.70754 2.6801,-18.71807 0,-11.50832 -0.2699,-13.59688 -2.3524,-18.20179 -3.0415,-6.72557 -10.947,-14.16752 -19.7411,-18.5837 -3.7986,-1.90753 -14.8536,-6.0401 -24.5668,-9.1835 -9.7132,-3.1434 -18.6255,-6.6144 -19.805,-7.71333 -1.5922,-1.48335 -2.0661,-2.94081 -1.8397,-5.65786 0.2643,-3.17125 0.7722,-3.82536 3.805,-4.89987 7.3774,-2.6138 21.8268,0.58906 36.8747,8.17368 4.056,2.04438 7.7391,3.34566 8.1845,2.89172 0.4455,-0.45394 4.4325,-7.77807 8.86,-16.275826 5.8595,-11.24606 7.7141,-15.66356 6.8154,-16.23351 -3.5531,-2.25347 -20.3668,-9.03348 -28.2346,-11.38542 -11.7037,-3.4986 -29.6028,-4.41993 -39.7338,-2.04525 -20.1105,4.71382 -34.5966,18.53108 -37.8628,36.114656 -1.6783,9.03468 -0.7437,19.99076 2.2622,26.51979 5.3421,11.60335 16.2756,18.6183 41.3344,26.52015 18.2116,5.74272 22.2629,7.66733 23.0918,10.96999 1.4755,5.87857 -2.4832,7.90461 -14.0918,7.21209 -9.5765,-0.5713 -23.6736,-5.01377 -34.2029,-10.77848 -3.9616,-2.16895 -7.5722,-3.94354 -8.0235,-3.94354 -0.4513,0 -4.6205,7.64204 -9.2648,16.98231 -5.9714,12.00924 -8.1324,17.29408 -7.3795,18.04697 1.8147,1.81469 18.461,8.61807 26.8707,10.9821 18.3328,5.15349 38.8793,6.47552 52.8026,3.39749 z m -844.24746,-1.4755 c 15.5301,-3.64604 26.83919,-12.59894 30.10723,-23.83457 2.02676,-6.96804 1.5063,-19.4932 -1.09286,-26.30043 -2.89679,-7.58674 -9.52856,-14.80035 -16.89731,-18.37981 l -5.89699,-2.86453 4.46495,-3.17446 c 10.78855,-7.67038 16.76598,-22.69741 14.32973,-36.024376 -1.57422,-8.61136 -6.30609,-17.48313 -12.10626,-22.69798 -8.55165,-7.68867 -8.30866,-7.65721 -59.14177,-7.65721 H 348 v 71.499996 71.5 h 41.12621 c 38.0619,0 41.78211,-0.15398 49.92893,-2.06663 z M 388,166.92985 v -11.5 l 16.75,0.004 c 14.74987,0.003 17.12577,0.23287 19.89691,1.9226 5.98274,3.64806 6.87728,13.82982 1.64138,18.68229 -2.52079,2.33592 -2.99236,2.39111 -20.43431,2.39111 H 388 Z m 0,-53 v -10.5 h 15.44424 c 14.58231,0 15.58875,0.12557 18.03376,2.25 3.15791,2.74387 4.28624,8.49075 2.50931,12.78064 -2.12367,5.12698 -5.14889,5.96936 -21.43765,5.96936 H 388 Z m 583.01186,85.25 3.48814,-13.25 20.13496,-0.27034 20.13494,-0.27034 2.1959,8.27034 c 1.2077,4.54869 2.8664,10.63284 3.686,13.52034 l 1.4901,5.25 h 20.3119 20.3119 l -3.3773,-10.75 c -1.8576,-5.9125 -12.0762,-37.975 -22.7081,-71.25 l -19.3306,-60.499996 -22.59145,-0.26856 -22.59141,-0.26856 -3.06586,9.76856 c -1.68623,5.37271 -11.82189,36.993556 -22.52371,70.268556 l -19.45785,60.5 -0.30971,-16 -0.30971,-16 -32.75,-0.26366 L 861,177.40252 V 123.41619 69.429854 h -20 -20 v 71.499996 71.5 h 73.26186 73.26185 z m 11.23241,-42.5 c 0.26264,-0.9625 3.11407,-11.73856 6.3365,-23.9468 3.22243,-12.20824 6.01602,-22.03974 6.20798,-21.84778 0.19196,0.19196 3.16767,10.96802 6.61265,23.9468 l 6.2637,23.59778 h -12.94918 c -11.84781,0 -12.90857,-0.14884 -12.47165,-1.75 z M 1162.5,210.92545 c 10.0869,-2.11776 20.4356,-7.51784 25.7634,-13.44365 6.1248,-6.81225 8.1545,-13.58869 7.5013,-25.04442 -0.8481,-14.87428 -7.3504,-25.05895 -19.7391,-30.91788 l -5.8132,-2.74923 3.4442,-1.85485 c 4.8432,-2.60822 10.1163,-8.7644 13.1571,-15.36053 2.2293,-4.83569 2.599,-7.02831 2.6344,-15.62504 0.037,-8.884296 -0.2681,-10.661616 -2.7306,-15.930126 -4.0929,-8.75652 -8.823,-13.96679 -15.8823,-17.49435 l -6.1546,-3.07552 H 1118.8403 1073 v 71.499996 71.5 l 41.25,-0.0174 c 32.3931,-0.0136 42.753,-0.33292 48.25,-1.48704 z M 1114,166.86539 v -11.56446 l 17.5843,0.31446 17.5843,0.31446 2.9157,3.26578 c 2.4067,2.69565 2.9157,4.14933 2.9157,8.32692 0,4.26057 -0.4624,5.52352 -2.9231,7.98422 l -2.9231,2.92308 H 1131.5769 1114 Z m 0,-52.86515 v -10.57039 h 15.5455 c 15.1717,0 15.6044,0.059 18,2.45455 3.4618,3.4618 3.4839,11.23594 0.043,15.23969 l -2.411,2.80576 -15.589,0.32039 -15.5889,0.3204 z"
       id="path56" />
  </g>
</svg>
